# xmcd CD database file generated by hand
#
# Track frame offsets:
#       150
#       13302
#       24305
#       32437
#       40917
#       53072
#       64877
#       72830
#       85747
#       96780
#       114907
#       130822
#       147805
#       166885
#       176877
#       186190
#       195312
#       207627
#       220400
#       233655
#       248280
#       260557
#       272377
#
# Disc length: 3788 seconds
#
# Revision: 2
# Processed by: cddbd v1.4b41PL1 Copyright (c) Steve Scherf et al.
# Submitted via: Kim Scarborough's own badass self
#
DISCID=3b0eca17
DTITLE=Various Artist - The Earliest Negro Vocal Quartets (1894-1928)
DYEAR=1900
DGENRE=
TTITLE0=Standard Quartette - Keep Movin'
TTITLE1=Dinwiddie Colored Quartet - Down on the Old Camp Ground
TTITLE2=Dinwiddie Colored Quartet - Poor Mourner
TTITLE3=Dinwiddie Colored Quartet - Steal Away
TTITLE4=Dinwiddie Colored Quartet - Gabriel's Trumpet
TTITLE5=Dinwiddie Colored Quartet - We'll Anchor Bye-And-Bye
TTITLE6=Male Quartette - The Camp Meeting Jubilee
TTITLE7=Apollo Male Quartette - Swing Low Sweet Chariot
TTITLE8=Apollo Male Quartette - Shout All over God's Heaven
TTITLE9=Polk Miller and His Old South Quartette - The Bonnie Blue Flag
TTITLE10=Polk Miller and His Old South Quartette - Laughing Song
TTITLE11=Polk Miller and His Old South Quartette - What a Time
TTITLE12=Polk Miller and His Old South Quartette - The Watermelon Party
TTITLE13=Polk Miller and His Old South Quartette - Rise and Shine
TTITLE14=Polk Miller and His Old South Quartette - The Old Time Religion
TTITLE15=Polk Miller and His Old South Quartette - Jerusalem Mornin'
TTITLE16=Old South Quartette - Oh What He's Done for Me
TTITLE17=Old South Quartette - Watermelon Party
TTITLE18=Old South Quartette - Bohunks and Josephus
TTITLE19=Old South Quartette - Oysters and Wine at 2 A.M.
TTITLE20=Old South Quartette - Pussy Cat Rag
TTITLE21=Old South Quartette - When de Corn Pone's Hot
TTITLE22=Old South Quartette - No Hiding Place Down Here
EXTD=
EXTT0=
EXTT1=
EXTT2=
EXTT3=
EXTT4=
EXTT5=
EXTT6=
EXTT7=
EXTT8=
EXTT9=
EXTT10=
EXTT11=
EXTT12=
EXTT13=
EXTT14=
EXTT15=
EXTT16=
EXTT17=
EXTT18=
EXTT19=
EXTT20=
EXTT21=
EXTT22=
PLAYORDER=
